<svg width="24" height="17" viewBox="0 0 24 17" fill="none" xmlns="http://www.w3.org/2000/svg"><path d="M24 5.63536L18.3572 1.40884H14.0222V0H0V1.40884H12.5691V12.7735H10.2684C9.95358 11.2003 8.47629 9.97928 6.73259 9.97928C4.9889 9.97928 3.53582 11.2003 3.19677 12.797H0V14.2058H3.19677C3.53582 15.8025 4.9889 17 6.73259 17C8.47629 17 9.92937 15.8025 10.2684 14.2058H14.555C14.894 15.8025 16.3471 17 18.0908 17C19.8345 17 21.3118 15.8025 21.6509 14.2058H24V5.63536ZM6.73259 15.5912C5.54591 15.5912 4.57719 14.6519 4.57719 13.5014C4.57719 12.3508 5.54591 11.4116 6.73259 11.4116C7.91927 11.4116 8.88799 12.3508 8.88799 13.5014C8.88799 14.6519 7.91927 15.5912 6.73259 15.5912ZM18.115 15.5912C16.9284 15.5912 15.9596 14.6519 15.9596 13.5014C15.9596 12.3508 16.9284 11.4116 18.115 11.4116C19.3017 11.4116 20.2704 12.3508 20.2704 13.5014C20.2704 14.6519 19.3017 15.5912 18.115 15.5912ZM22.5469 12.797H21.6509C21.3118 11.2003 19.8587 9.97928 18.115 9.97928C16.3713 9.97928 14.894 11.2003 14.555 12.797H14.0222V2.81768H17.8486L22.5469 6.33978V12.797Z" fill="#060404"></path><path d="M3.0999 4.34392H0V5.75276H3.0999V4.34392Z" fill="#060404"></path><path d="M3.0999 8.45304H0V9.86188H3.0999V8.45304Z" fill="#060404"></path></svg>