<svg width="27" height="27" viewBox="0 0 33 28" fill="none" xmlns="http://www.w3.org/2000/svg"><path d="M22.5923 27.9999H4.30586C3.28215 27.9999 2.38467 27.255 2.17432 26.2236L0.0427557 15.4655C-0.0834545 14.8065 0.0708127 14.1476 0.491513 13.6176C0.89819 13.1019 1.51522 12.801 2.17432 12.801H24.7239C25.383 12.801 25.986 13.1019 26.4067 13.6176C26.8133 14.1333 26.9816 14.8065 26.8554 15.4655L24.7239 26.2236C24.5135 27.255 23.616 27.9999 22.5923 27.9999ZM2.17432 13.8038C1.82373 13.8038 1.48717 13.9614 1.24878 14.2479C1.01038 14.5344 0.940254 14.8925 1.01037 15.2506L3.14193 26.0087C3.25412 26.5674 3.74492 26.9828 4.30586 26.9828H22.5923C23.1532 26.9828 23.6441 26.5674 23.7563 26.0087L25.8878 15.2506C25.9579 14.8925 25.8738 14.52 25.6494 14.2479C25.425 13.9757 25.0885 13.8038 24.7239 13.8038H2.17432Z" fill="black"></path><path d="M25.7905 17.5427H1.10938V18.5455H25.7905V17.5427Z" fill="black"></path><path d="M24.8924 22.27H1.99219V23.2728H24.8924V22.27Z" fill="black"></path><path d="M22.7062 11.4545H21.7245C21.7245 6.79889 18.0083 3.00275 13.4507 3.00275C8.89314 3.00275 5.17695 6.79889 5.17695 11.4545H4.19531C4.19531 6.24021 8.34623 2 13.4507 2C18.5553 2 22.7062 6.24021 22.7062 11.4545Z" fill="black"></path></svg>