<svg width="28" height="21" viewBox="0 0 28 21" fill="none" xmlns="http://www.w3.org/2000/svg"><path d="M23.1742 6.23137H28V4.58431H23.1742V0H4.77419V4.58431H0V6.23137H4.77419V10.9255C4.77419 11.6118 4.85161 12.298 5.00645 12.9294H0V14.5765H5.57419C6.34839 16.3059 7.66451 17.7608 9.36774 18.6392L14.0129 21L18.6581 18.6392C20.3355 17.7882 21.6516 16.3333 22.4516 14.5765H28V12.9294H22.9419C23.0968 12.2706 23.1742 11.6118 23.1742 10.9255V6.23137ZM21.6258 10.898C21.6258 13.5333 20.1806 15.9765 17.9355 17.1294L13.9613 19.1608L9.9871 17.1294C7.74194 15.9765 6.29677 13.5333 6.29677 10.898V1.64706H21.6V10.898H21.6258Z" fill="black"></path><path d="M19.3548 6.61569L18.1677 5.5451L13.3935 11.4745L10.6581 8.75686L9.6 9.96471L13.5226 13.8627L19.3548 6.61569Z" fill="black"></path></svg>