<svg xmlns="http://www.w3.org/2000/svg" fill="none" viewBox="0 0 25 24"><path stroke="currentColor" stroke-linecap="round" stroke-linejoin="round" stroke-width="1.5" d="M5.103 11.42 3.33 9.68l-1.763 1.74m18.879 1.16 1.772 1.74 1.773-1.74"></path><path stroke="currentColor" stroke-linecap="round" stroke-linejoin="round" stroke-width="1.5" d="M22.209 14.32V12c0-5.12-4.228-9.26-9.434-9.26a9.52 9.52 0 0 0-7.366 3.47M3.34 9.68V12c0 5.12 4.228 9.26 9.434 9.26a9.52 9.52 0 0 0 7.366-3.47"></path><path fill="currentColor" stroke="currentColor" stroke-width=".32" d="M12.016 17.8v-1.47c-.786 0-1.628-.295-2.134-.648l.337-1a3.63 3.63 0 0 0 2.021.647c1.01 0 1.684-.588 1.684-1.412 0-.823-.561-1.294-1.572-1.764-1.46-.588-2.301-1.235-2.301-2.53 0-1.235.842-2.117 2.133-2.353V5.8h.842v1.412c.842 0 1.404.235 1.797.529l-.337.941c-.28-.176-.842-.47-1.74-.47-1.067 0-1.46.647-1.46 1.235 0 .765.505 1.118 1.74 1.647 1.46.647 2.19 1.353 2.19 2.706 0 1.176-.786 2.235-2.19 2.47v1.53z"></path></svg>