<svg width="24" height="24" viewBox="0 0 30 26" fill="none" xmlns="http://www.w3.org/2000/svg"><path d="M14.7858 26C14.2619 26 13.738 25.8422 13.2869 25.5124C11.5696 24.2648 8.26609 21.7408 5.3846 18.7579C1.81912 15.0436 0 11.7739 0 9.03475C0 4.04413 3.85654 0 8.58626 0C10.9438 0 13.1704 1.00386 14.7858 2.79647C16.4158 1.00386 18.6424 0 20.9999 0C25.7297 0 29.5862 4.04413 29.5862 9.03475C29.5862 11.7739 27.7671 15.0436 24.1871 18.7579C21.3201 21.7408 18.002 24.2791 16.2848 25.5124C15.8482 25.8422 15.3097 26 14.7858 26ZM8.58626 1.00386C4.40955 1.00386 1.01871 4.60342 1.01871 9.03475C1.01871 14.9288 10.8711 22.5295 13.8981 24.7093C14.4366 25.0965 15.1497 25.0965 15.6881 24.7093C18.7151 22.5295 28.5675 14.9288 28.5675 9.03475C28.5675 4.60342 25.1767 1.00386 20.9999 1.00386C18.7588 1.00386 16.6341 2.05074 15.1933 3.88638L14.7858 4.38831L14.3783 3.88638C12.9522 2.05074 10.8274 1.00386 8.58626 1.00386Z" fill="black"></path></svg>