<svg width="29" height="19" viewBox="0 0 29 19" fill="none" xmlns="http://www.w3.org/2000/svg"><path d="M25.7449 0H3.2551C1.45 0 0 1.48722 0 3.33866V15.6613C0 17.5128 1.45 19 3.2551 19H25.7449C27.55 19 29 17.5128 29 15.6613V3.33866C29 1.48722 27.55 0 25.7449 0ZM28.1122 15.631C28.1122 16.9665 27.0469 18.0591 25.7449 18.0591H3.2551C1.95306 18.0591 0.887755 16.9665 0.887755 15.631V3.33866C0.887755 2.0032 1.95306 0.910543 3.2551 0.910543H25.7449C27.0469 0.910543 28.1122 2.0032 28.1122 3.33866V15.631Z" fill="black"></path><path d="M10.4459 9.25719C11.1561 8.65016 11.5704 7.73962 11.6 6.79872C11.6296 5.00799 10.1796 3.42971 8.43367 3.39936C7.54592 3.36901 6.71735 3.70288 6.06633 4.34026C5.41531 4.97764 5.0898 5.82748 5.0898 6.73802C5.0898 7.70927 5.50408 8.65016 6.24388 9.28754C4.58673 10.1374 3.72857 11.8067 3.72857 14.2348H4.61633C4.61633 12.0192 5.35612 10.623 6.8949 9.98562C7.13163 9.89457 7.27959 9.65176 7.30918 9.40895C7.33878 9.16613 7.22041 8.92332 7.01327 8.77157C6.36225 8.31629 5.94796 7.55751 5.94796 6.76837C5.94796 6.10064 6.21429 5.49361 6.65816 5.03834C7.13163 4.58307 7.72347 4.34026 8.37449 4.34026C9.64694 4.37061 10.7122 5.52396 10.6827 6.82907C10.6531 7.61821 10.2684 8.34665 9.64694 8.80192C9.4398 8.95367 9.32143 9.19649 9.35102 9.4393C9.38061 9.68211 9.52857 9.92492 9.76531 10.016C11.3041 10.6534 12.0439 12.0495 12.0439 14.2652H12.9316C12.9316 11.7764 12.1031 10.1374 10.4459 9.25719Z" fill="black"></path><path d="M25.3306 4.58307H15.2102V5.49361H25.3306V4.58307Z" fill="black"></path><path d="M25.3306 9.04473H15.2102V9.95527H25.3306V9.04473Z" fill="black"></path><path d="M25.3306 13.476H15.2102V14.3866H25.3306V13.476Z" fill="black"></path></svg>