<svg xmlns="http://www.w3.org/2000/svg" xml:space="preserve" fill="currentColor" viewBox="0 0 512 512"><path d="M465.067 392.533H345.6a8.533 8.533 0 0 0-8.533 8.533V435.2a8.533 8.533 0 0 0 8.533 8.533h119.467a8.533 8.533 0 0 0 8.533-8.533v-34.133a8.534 8.534 0 0 0-8.533-8.534zm-8.534 34.134h-102.4V409.6h102.4v17.067z"></path><path d="M406.358 0H65.108C50.971 0 38.4 10.4 38.4 24.5v460.867c0 14.1 12.542 26.633 26.65 26.633h257.158c4.712 0 8.533-3.817 8.533-8.533s-3.821-8.533-8.533-8.533H65.05c-4.696 0-9.583-4.883-9.583-9.567V24.5c0-4.683 4.912-7.433 9.642-7.433h341.25c4.65 0 7.508 2.808 7.508 7.4V323.2c0 4.717 3.821 8.533 8.533 8.533s8.533-3.817 8.533-8.533V24.467C430.933 10.392 420.496 0 406.358 0z"></path><path d="M278.4 59.733h-85.333a8.53 8.53 0 0 0-8.533 8.533 8.53 8.53 0 0 0 8.533 8.533H278.4a8.53 8.53 0 0 0 8.533-8.533 8.53 8.53 0 0 0-8.533-8.533zm76.8 59.734H116.267a8.53 8.53 0 0 0-8.533 8.533 8.53 8.53 0 0 0 8.533 8.533H355.2a8.53 8.53 0 0 0 8.533-8.533 8.53 8.53 0 0 0-8.533-8.533zm0 59.733H116.267a8.53 8.53 0 0 0-8.533 8.533 8.53 8.53 0 0 0 8.533 8.533H355.2a8.53 8.53 0 0 0 8.533-8.533 8.53 8.53 0 0 0-8.533-8.533zm0 59.733H116.267a8.53 8.53 0 0 0-8.533 8.533 8.53 8.53 0 0 0 8.533 8.533H355.2a8.53 8.53 0 0 0 8.533-8.533 8.53 8.53 0 0 0-8.533-8.533zm0 59.734H116.267c-4.713 0-9.6 2.75-9.6 7.467v128c0 4.717 4.887 9.6 9.6 9.6h179.2c4.713 0 8.533-3.817 8.533-8.533s-3.821-8.533-8.533-8.533H123.733V315.733H345.6v41.6c0 4.717 3.821 8.533 8.533 8.533s8.533-3.817 8.533-8.533v-51.2c.001-4.716-2.753-7.466-7.466-7.466z"></path></svg>