<svg width="29" height="21" viewBox="0 0 29 21" fill="none" xmlns="http://www.w3.org/2000/svg"><path d="M29 8.4062C29 3.78434 25.4769 0 21.1094 0C18.8966 0 16.8876 0.961594 15.4608 2.54357C15.0532 2.35746 14.5873 2.2644 14.1506 2.2644H3.40663C1.51406 2.2644 0 3.90842 0 5.89365V17.4018C0 19.387 1.51406 21 3.37751 21H14.1797C16.0432 21 17.5572 19.387 17.5572 17.4018V15.9129C18.6345 16.5022 19.8283 16.8124 21.1094 16.8124C22.4197 16.8124 23.6717 16.4712 24.749 15.8508L27.4859 20.7518L28.243 20.2866L25.506 15.3855C27.6315 13.8656 29 11.322 29 8.4062ZM10.8022 3.19498V9.52289C10.8022 9.89513 10.511 10.2053 10.1616 10.2053H7.39558C7.04619 10.2053 6.75502 9.89513 6.75502 9.52289V3.19498H10.8022ZM16.7129 17.4018C16.7129 18.8907 15.5773 20.0694 14.2088 20.0694H3.37751C1.97992 20.0694 0.873494 18.8597 0.873494 17.4018V5.89365C0.873494 4.40473 2.00904 3.226 3.37751 3.226H5.88153V9.55392C5.88153 10.4535 6.5512 11.1669 7.39558 11.1669H10.1616C11.006 11.1669 11.6757 10.4535 11.6757 9.55392V3.226H14.1797C14.4127 3.226 14.6456 3.25702 14.8785 3.35008C13.8594 4.77696 13.248 6.54505 13.248 8.43722C13.248 11.322 14.6165 13.8656 16.7129 15.3855V17.4018ZM14.1215 8.4062C14.1215 4.28065 17.2661 0.930576 21.1386 0.930576C25.011 0.930576 28.1556 4.28065 28.1556 8.4062C28.1556 12.5318 25.011 15.8818 21.1386 15.8818C17.2661 15.8818 14.1215 12.5318 14.1215 8.4062Z" fill="black"></path><path d="M24.6034 5.95569H17.6446V6.88626H24.6034V5.95569Z" fill="black"></path><path d="M24.6034 9.92615H17.6446V10.8567H24.6034V9.92615Z" fill="black"></path></svg>