<svg width="22" height="22" viewBox="0 0 22 22" fill="none" xmlns="http://www.w3.org/2000/svg"><path d="M9.29496 18.5899C4.17485 18.5899 0 14.4151 0 9.29496C0 4.17485 4.17485 0 9.29496 0C14.4151 0 18.5899 4.17485 18.5899 9.29496C18.5899 14.4151 14.4151 18.5899 9.29496 18.5899ZM9.29496 1.10279C4.77351 1.10279 1.10279 4.77351 1.10279 9.29496C1.10279 13.8164 4.77351 17.4871 9.29496 17.4871C13.8164 17.4871 17.4871 13.8164 17.4871 9.29496C17.4871 4.77351 13.8164 1.10279 9.29496 1.10279Z" fill="black"></path><path d="M16.3409 15.2585L15.5612 16.0383L21.2202 21.6973L21.9999 20.9175L16.3409 15.2585Z" fill="black"></path></svg>