<svg width="30" height="27" viewBox="0 0 30 29" fill="none" xmlns="http://www.w3.org/2000/svg"><path d="M30 9.70911C30 8.13337 28.1141 2.75357 27.0365 1.24149C26.4818 0.461581 25.5784 0 24.6117 0H5.38827C4.42155 0 3.51823 0.461581 2.96355 1.24149C1.8859 2.75357 0 8.13337 0 9.70911C0 10.8551 0.459588 11.9215 1.26783 12.7173C1.34707 12.7969 1.42631 12.8606 1.50555 12.9402V25.0527C1.50555 27.2173 3.24881 28.9682 5.40412 28.9682L14.9921 28.9841V27.8699H10.8558V20.3732C10.8558 19.4023 11.6482 18.6065 12.6149 18.6065H17.3534C18.3201 18.6065 19.1125 19.4023 19.1125 20.3732V29L24.5642 28.9841C26.7195 28.9841 28.4628 27.2333 28.4628 25.0686V12.9402C28.542 12.8765 28.6212 12.7969 28.7005 12.7173C29.5404 11.9215 30 10.8551 30 9.70911ZM22.7734 1.11416H24.6117C25.2139 1.11416 25.7845 1.40066 26.1331 1.89407C27.1632 3.32656 28.8906 8.4517 28.8906 9.70911C28.8906 10.5527 28.5578 11.3326 27.9556 11.9215C27.3534 12.5104 26.561 12.8128 25.7211 12.781C24.1046 12.7173 22.7734 11.3008 22.7734 9.62953V1.11416ZM21.664 9.70911C21.664 11.3963 20.2853 12.781 18.6054 12.781C16.9255 12.781 15.5468 11.3963 15.5468 9.70911V1.11416H21.664V9.62953C21.664 9.66136 21.664 9.67728 21.664 9.70911ZM8.33597 1.11416H14.4532V9.70911C14.4532 11.3963 13.0745 12.781 11.3946 12.781C9.71474 12.781 8.33597 11.3963 8.33597 9.70911C8.33597 9.67728 8.33597 9.64545 8.33597 9.62953V1.11416ZM1.10935 9.70911C1.10935 8.43579 2.83677 3.32656 3.86688 1.89407C4.21553 1.40066 4.78605 1.11416 5.38827 1.11416H7.22662V9.62953C7.22662 11.3167 5.91125 12.7333 4.27892 12.781C3.43899 12.8128 2.64659 12.5104 2.04437 11.9215C1.44216 11.3326 1.10935 10.5527 1.10935 9.70911ZM27.3693 25.0527C27.3693 26.5966 26.1173 27.854 24.58 27.854L20.2377 27.8699V20.3573C20.2377 18.7656 18.954 17.4764 17.3693 17.4764H12.6307C11.046 17.4764 9.76228 18.7656 9.76228 20.3573V27.854H5.41997C3.88273 27.854 2.63074 26.5966 2.63074 25.0527V13.5928C3.15372 13.7997 3.72425 13.9111 4.32647 13.8793C5.78447 13.8315 7.06815 12.972 7.76545 11.7464C8.47861 13.0198 9.84152 13.8793 11.3946 13.8793C12.9319 13.8793 14.2789 13.0357 15.0079 11.7783C15.7211 13.0357 17.084 13.8793 18.6212 13.8793C20.1743 13.8793 21.5372 13.0198 22.2504 11.7464C22.9477 12.972 24.2314 13.8156 25.6894 13.8793C25.7369 13.8793 25.7845 13.8793 25.8479 13.8793C26.3867 13.8793 26.8938 13.7838 27.3851 13.5928V25.0527H27.3693Z" fill="black"></path></svg>