<svg width="29" height="19" viewBox="0 0 29 19" fill="none" xmlns="http://www.w3.org/2000/svg"><path d="M25.2908 18.1931C24.971 18.1931 24.6513 18.0652 24.3955 17.8094L22.605 16.0509H14.2919C12.7252 16.0509 11.4463 14.772 11.4463 13.2053V6.33098C11.4463 4.76429 12.7252 3.48535 14.2919 3.48535H26.154C27.7207 3.48535 28.9997 4.76429 28.9997 6.33098V13.1733C28.9997 14.5801 27.9765 15.7631 26.6017 15.9869V16.8822C26.6017 17.4257 26.2819 17.8734 25.8023 18.0652C25.6425 18.1611 25.4826 18.1931 25.2908 18.1931ZM14.2599 4.41258C13.2048 4.41258 12.3415 5.27586 12.3415 6.33098V13.1733C12.3415 14.2284 13.2048 15.0917 14.2599 15.0917H22.9567L25.035 17.138C25.1948 17.2979 25.3867 17.2339 25.4506 17.2019C25.5146 17.17 25.6744 17.074 25.6744 16.8502V15.0597H26.1221C27.1772 15.0597 28.0405 14.1964 28.0405 13.1413V6.33098C28.0405 5.27586 27.1772 4.41258 26.1221 4.41258H14.2599Z" fill="black"></path><path d="M8.21618 7.41801C8.21618 6.61868 8.63184 6.26697 9.01552 5.97921C9.36722 5.72343 9.65498 5.49961 9.65498 4.98804C9.65498 4.44449 9.23933 4.09278 8.72776 4.09278C8.21618 4.09278 7.76855 4.41252 7.73658 4.95606H6.90527C6.93725 3.837 7.80053 3.26147 8.72776 3.26147C9.68696 3.26147 10.5502 3.90094 10.5502 4.98804C10.5502 5.78737 10.1346 6.13908 9.7509 6.42684C9.43117 6.68263 9.11144 6.93841 9.11144 7.41801V7.57788H8.21618V7.41801ZM8.18421 8.18538H9.17538V9.20852H8.18421V8.18538Z" fill="black"></path><path d="M18.3209 10.4552C18.6917 10.4552 18.9923 10.1546 18.9923 9.78375C18.9923 9.41292 18.6917 9.1123 18.3209 9.1123C17.95 9.1123 17.6494 9.41292 17.6494 9.78375C17.6494 10.1546 17.95 10.4552 18.3209 10.4552Z" fill="black"></path><path d="M20.2076 10.4554C20.5784 10.4554 20.879 10.1548 20.879 9.78399C20.879 9.41316 20.5784 9.11255 20.2076 9.11255C19.8367 9.11255 19.5361 9.41316 19.5361 9.78399C19.5361 10.1548 19.8367 10.4554 20.2076 10.4554Z" fill="black"></path><path d="M22.0933 10.4554C22.4641 10.4554 22.7648 10.1548 22.7648 9.78399C22.7648 9.41316 22.4641 9.11255 22.0933 9.11255C21.7225 9.11255 21.4219 9.41316 21.4219 9.78399C21.4219 10.1548 21.7225 10.4554 22.0933 10.4554Z" fill="black"></path><path d="M3.70891 14.7078C3.54905 14.7078 3.3572 14.6758 3.19734 14.6118C2.71774 14.42 2.398 13.9404 2.398 13.4288V12.5336C1.05512 12.3098 0 11.1267 0 9.71991V2.84563C0 1.27894 1.27894 0 2.84563 0H14.7078C16.2745 0 17.5534 1.27894 17.5534 2.84563V3.93273H16.6262V2.84563C16.6262 1.79051 15.7629 0.927229 14.7078 0.927229H2.8776C1.82248 0.927229 0.959201 1.79051 0.959201 2.84563V9.68793C0.959201 10.7431 1.82248 11.6063 2.8776 11.6063H3.32523V13.3968C3.32523 13.6207 3.4851 13.7166 3.54905 13.7486C3.61299 13.7805 3.80483 13.8445 3.9647 13.6846L6.04297 11.6383H11.8941V12.5655H6.42665L4.60417 14.356C4.34838 14.5799 4.02865 14.7078 3.70891 14.7078Z" fill="black"></path></svg>